  <svg xmlns="http://www.w3.org/2000/svg" viewBox="0 0 1878.132 95.177">
   <g data-name="图层 2">
    <g data-name="图层 1">
     <path d="M256.222,67.462c3.672.154,43.822,12.978,31.218-8.047,55.027,12.593,52.251-15.454,6.6-29.441,26.963-14.922-34.734-19.71-36.053-16.611,10.012-31-73.074-.1-57.6,34.245C202.508,67.575,265.737,95.031,256.222,67.462Z" style="fill:#f9c860">
     </path>
     <path d="M177.087,61.745a1.543,1.543,0,0,1-.925-2.778c16.679-12.474,46.9-21.106,73.732-21.106h.764a146.681,146.681,0,0,1,43.461,5.906c.632.178,1.282.362,1.6.44a1.489,1.489,0,0,1,1.5.967,1.569,1.569,0,0,1-.286,1.623c-.7.775-1.206.632-3.651-.061a143.519,143.519,0,0,0-42.592-5.789c-.249,0-.5,0-.75,0-26.277,0-55.733,8.381-71.928,20.492A1.53,1.53,0,0,1,177.087,61.745Z" style="fill:#0b0b0a">
     </path>
     <path d="M270.357,60.644a1.554,1.554,0,0,1-1.236-.618c-1.423-.9-8.82-4.2-15.378-7.125C245,49,235.092,44.584,230.023,41.858a1.543,1.543,0,0,1-.338-2.473c12.672-12.153,38.707-18.2,40.329-17.542a1.564,1.564,0,0,1,.979,1.369,1.541,1.541,0,0,1-1.467,1.614,1.247,1.247,0,0,1-.221,0c-2.275.262-23.781,5.142-35.863,15.335,5.326,2.688,13.892,6.508,21.557,9.926,16.549,7.379,16.579,7.495,16.861,8.6a1.625,1.625,0,0,1-.279,1.354A1.536,1.536,0,0,1,270.357,60.644Zm-1.226-2.48a1.538,1.538,0,0,0-.243.467A1.545,1.545,0,0,1,269.131,58.164Zm0,0v0Z" style="fill:#0b0b0a">
     </path>
     <path d="M53.62,61.582C57.527,64.9,80.746,94.027,86.711,72.758c2.905,3.9,21.185,24.954,29.519,22.166,12.861-1.979,8.811-31.3,5.108-33.41,32.306,14.206,6.338-27.179-.526-29.469,22.236,3.86,19.419-12.237-2.77-22.643C97.164-1.284,56.913-6.279,34.548,13.315,9.842,32.915,17.7,50.663,26.816,60.923,36.928,71.108,48.294,73.805,53.62,61.582Z" style="fill:#e0744c">
     </path>
     <path d="M105.426,71.066a1.329,1.329,0,0,1-.178-.011c-.953-.115-1.258-.683-2.4-2.8a92.567,92.567,0,0,0-23.72-28.947C61.522,24.122,30.765,9.782,1.657,11.923A1.543,1.543,0,1,1,1.43,8.845c29.983-2.2,61.627,12.525,79.684,28.1A95.465,95.465,0,0,1,105.569,66.8c.3.565.616,1.144.8,1.453a1.266,1.266,0,0,1,.142.114,1.541,1.541,0,0,1,.108,2.179A1.641,1.641,0,0,1,105.426,71.066Z" style="fill:#0b0b0a">
     </path>
     <path d="M73.488,64.361a1.543,1.543,0,0,1-1.506-1.216,1.513,1.513,0,0,1-.035-.352c-.161-.567-.752-2.179-1.328-3.742-2.966-8.078-9.141-24.889-7.477-32.752a1.543,1.543,0,0,1,1.495-1.224c.2,0,.4,0,.594,0,13.485,0,26.063,4.3,34.292,7.942a103.16,103.16,0,0,1,11,5.653c4.755,2.838,4.77,3.217,4.8,3.972a1.556,1.556,0,0,1-1.44,1.608,1.5,1.5,0,0,1-1.291-.545c-1.454-1.041-22.344-15.255-46.6-15.539-.642,7.574,5.031,23.017,7.531,29.824,1.7,4.615,1.761,4.794,1.339,5.563a1.585,1.585,0,0,1-1.039.775A1.493,1.493,0,0,1,73.488,64.361Zm-.332-3.05a1.537,1.537,0,0,0-.264.084A1.533,1.533,0,0,1,73.156,61.311Zm0,0h0Zm0,0h0Z" style="fill:#0b0b0a">
     </path>
     <path d="M643.628,67.462c3.672.154,43.822,12.978,31.218-8.047,55.027,12.593,52.251-15.454,6.6-29.441,26.963-14.922-34.734-19.71-36.053-16.611,10.012-31-73.074-.1-57.6,34.245C589.914,67.575,653.143,95.031,643.628,67.462Z" style="fill:#f9c860">
     </path>
     <path d="M564.493,61.745a1.543,1.543,0,0,1-.924-2.778c16.678-12.474,46.9-21.106,73.731-21.106h.764a146.738,146.738,0,0,1,43.461,5.906c.632.178,1.281.362,1.6.44a1.493,1.493,0,0,1,1.5.967,1.569,1.569,0,0,1-.286,1.623c-.7.775-1.205.632-3.651-.061a143.468,143.468,0,0,0-42.591-5.789c-.249,0-.5,0-.75,0-26.276,0-55.732,8.381-71.928,20.492A1.53,1.53,0,0,1,564.493,61.745Z" style="fill:#0b0b0a">
     </path>
     <path d="M657.763,60.644a1.554,1.554,0,0,1-1.235-.618c-1.424-.9-8.821-4.2-15.379-7.125-8.742-3.9-18.651-8.317-23.72-11.043a1.543,1.543,0,0,1-.338-2.473c12.665-12.148,38.694-18.19,40.327-17.543a1.566,1.566,0,0,1,.982,1.365,1.544,1.544,0,0,1-1.689,1.614c-2.276.262-23.781,5.141-35.863,15.335,5.326,2.688,13.893,6.508,21.558,9.926,16.548,7.379,16.579,7.495,16.86,8.6a1.624,1.624,0,0,1-.278,1.354A1.54,1.54,0,0,1,657.763,60.644Zm-1.226-2.48a1.538,1.538,0,0,0-.243.467A1.545,1.545,0,0,1,656.537,58.164Zm0,0v0Z" style="fill:#0b0b0a">
     </path>
     <path d="M441.026,61.582c3.907,3.313,27.126,32.445,33.091,11.176,2.9,3.9,21.186,24.954,29.519,22.166,12.861-1.979,8.811-31.3,5.108-33.41,32.306,14.206,6.338-27.179-.526-29.469,22.236,3.86,19.419-12.237-2.77-22.643C484.57-1.284,444.319-6.279,421.954,13.315c-24.706,19.6-16.846,37.348-7.732,47.608C424.334,71.108,435.7,73.805,441.026,61.582Z" style="fill:#e0744c">
     </path>
     <path d="M492.831,71.066a1.3,1.3,0,0,1-.177-.011c-.953-.115-1.259-.683-2.4-2.8a92.559,92.559,0,0,0-23.719-28.947c-17.609-15.191-48.365-29.531-77.475-27.39a1.543,1.543,0,1,1-.227-3.078c29.977-2.2,61.626,12.525,79.684,28.1A95.434,95.434,0,0,1,492.975,66.8c.3.564.615,1.144.8,1.452a1.256,1.256,0,0,1,.141.114,1.542,1.542,0,0,1,.109,2.179A1.643,1.643,0,0,1,492.831,71.066Z" style="fill:#0b0b0a">
     </path>
     <path d="M460.893,64.361a1.544,1.544,0,0,1-1.506-1.217,1.566,1.566,0,0,1-.035-.351c-.16-.568-.753-2.181-1.328-3.747-2.967-8.077-9.14-24.885-7.476-32.747a1.545,1.545,0,0,1,1.5-1.224c13.746-.152,26.537,4.246,34.886,7.939a103.16,103.16,0,0,1,11,5.653c4.755,2.838,4.771,3.217,4.8,3.972a1.556,1.556,0,0,1-1.44,1.608A1.5,1.5,0,0,1,500,43.7c-1.454-1.041-22.343-15.255-46.605-15.539-.642,7.573,5.029,23.014,7.529,29.82,1.7,4.618,1.763,4.8,1.34,5.567a1.578,1.578,0,0,1-1.04.775A1.471,1.471,0,0,1,460.893,64.361Zm-.332-3.05a1.48,1.48,0,0,0-.264.084A1.533,1.533,0,0,1,460.561,61.311Zm0,0h0Zm0,0h0Z" style="fill:#0b0b0a">
     </path>
     <path d="M1031.034,67.462c3.672.154,43.822,12.978,31.218-8.047,55.027,12.593,52.251-15.454,6.6-29.441,26.963-14.922-34.734-19.71-36.053-16.611,10.012-31-73.074-.1-57.6,34.245C977.32,67.575,1040.549,95.031,1031.034,67.462Z" style="fill:#f9c860">
     </path>
     <path d="M951.9,61.745a1.543,1.543,0,0,1-.925-2.778c16.678-12.474,46.894-21.106,73.73-21.106h.764a146.8,146.8,0,0,1,43.462,5.906c.632.178,1.281.362,1.6.44a1.5,1.5,0,0,1,1.5.967,1.573,1.573,0,0,1-.286,1.623c-.7.775-1.206.632-3.652-.061a143.537,143.537,0,0,0-42.592-5.789c-.249,0-.5,0-.75,0-26.277,0-55.732,8.381-71.926,20.492A1.534,1.534,0,0,1,951.9,61.745Z" style="fill:#0b0b0a">
     </path>
     <path d="M1045.169,60.644a1.552,1.552,0,0,1-1.234-.618c-1.424-.9-8.821-4.2-15.381-7.125-8.741-3.9-18.649-8.317-23.72-11.043a1.543,1.543,0,0,1-.338-2.473c12.666-12.148,38.721-18.19,40.329-17.543a1.565,1.565,0,0,1,.981,1.365,1.543,1.543,0,0,1-1.688,1.614c-2.277.262-23.782,5.141-35.864,15.335,5.325,2.688,13.893,6.508,21.557,9.925,16.55,7.38,16.579,7.5,16.86,8.606a1.622,1.622,0,0,1-.276,1.353A1.543,1.543,0,0,1,1045.169,60.644Zm-1.224-2.48a1.506,1.506,0,0,0-.243.458A1.523,1.523,0,0,1,1043.945,58.164Z" style="fill:#0b0b0a">
     </path>
     <path d="M828.432,61.582c3.907,3.313,27.126,32.445,33.091,11.176,2.9,3.9,21.186,24.954,29.519,22.166,12.861-1.979,8.811-31.3,5.108-33.41,32.306,14.206,6.338-27.179-.526-29.469,22.236,3.86,19.419-12.237-2.77-22.643C871.976-1.284,831.725-6.279,809.36,13.315c-24.706,19.6-16.846,37.348-7.732,47.608C811.74,71.108,823.106,73.805,828.432,61.582Z" style="fill:#e0744c">
     </path>
     <path d="M880.238,71.066a1.309,1.309,0,0,1-.178-.011c-.953-.115-1.259-.683-2.4-2.8a92.566,92.566,0,0,0-23.718-28.947c-17.612-15.191-48.376-29.533-77.476-27.39a1.543,1.543,0,0,1-.226-3.078c29.971-2.211,61.625,12.525,79.683,28.1A95.468,95.468,0,0,1,880.38,66.8c.3.565.616,1.144.8,1.453a1.266,1.266,0,0,1,.142.114,1.543,1.543,0,0,1,.108,2.179A1.642,1.642,0,0,1,880.238,71.066Z" style="fill:#0b0b0a">
     </path>
     <path d="M848.3,64.361a1.544,1.544,0,0,1-1.506-1.216,1.569,1.569,0,0,1-.035-.352c-.16-.567-.752-2.179-1.326-3.742-2.968-8.078-9.143-24.889-7.478-32.752a1.545,1.545,0,0,1,1.5-1.224c13.734-.144,26.537,4.246,34.885,7.939a103.259,103.259,0,0,1,11,5.653c4.755,2.838,4.771,3.217,4.8,3.972a1.556,1.556,0,0,1-1.439,1.608A1.511,1.511,0,0,1,887.4,43.7C885.95,42.661,865.06,28.447,840.8,28.163c-.642,7.574,5.03,23.018,7.53,29.824,1.7,4.615,1.761,4.794,1.339,5.563a1.582,1.582,0,0,1-1.039.775A1.48,1.48,0,0,1,848.3,64.361Zm-.332-3.05a1.444,1.444,0,0,0-.263.084A1.5,1.5,0,0,1,847.967,61.311Zm0,0h0Zm0,0h0Z" style="fill:#0b0b0a">
     </path>
     <path d="M1418.44,67.462c3.672.154,43.822,12.978,31.218-8.047,55.027,12.593,52.251-15.454,6.6-29.441,26.963-14.922-34.734-19.71-36.053-16.611,10.012-31-73.074-.1-57.6,34.245C1364.726,67.575,1427.955,95.031,1418.44,67.462Z" style="fill:#f9c860">
     </path>
     <path d="M1339.305,61.745a1.543,1.543,0,0,1-.925-2.778c16.679-12.474,46.9-21.106,73.732-21.106h.763a146.737,146.737,0,0,1,43.462,5.906c.632.178,1.281.362,1.6.44a1.5,1.5,0,0,1,1.5.967,1.571,1.571,0,0,1-.286,1.623c-.7.775-1.206.632-3.652-.061a143.5,143.5,0,0,0-42.591-5.789c-.249,0-.5,0-.75,0-26.277,0-55.733,8.381-71.928,20.492A1.532,1.532,0,0,1,1339.305,61.745Z" style="fill:#0b0b0a">
     </path>
     <path d="M1432.575,60.644a1.554,1.554,0,0,1-1.236-.618c-1.424-.9-8.82-4.2-15.379-7.125-8.742-3.9-18.65-8.317-23.719-11.043a1.543,1.543,0,0,1-.338-2.473c12.666-12.148,38.726-18.19,40.328-17.543a1.565,1.565,0,0,1,.981,1.365,1.543,1.543,0,0,1-1.688,1.614c-2.277.262-23.781,5.141-35.865,15.335,5.327,2.688,13.893,6.508,21.558,9.926,16.549,7.379,16.579,7.495,16.86,8.6a1.621,1.621,0,0,1-.278,1.354A1.539,1.539,0,0,1,1432.575,60.644Zm-1.225-2.482a1.546,1.546,0,0,0-.244.468A1.565,1.565,0,0,1,1431.35,58.162Z" style="fill:#0b0b0a">
     </path>
     <path d="M1215.838,61.582c3.907,3.313,27.126,32.445,33.091,11.176,2.9,3.9,21.186,24.954,29.519,22.166,12.861-1.979,8.811-31.3,5.108-33.41,32.306,14.206,6.338-27.179-.526-29.469,22.236,3.86,19.419-12.237-2.77-22.643-20.878-10.686-61.129-15.681-83.494,3.913-24.706,19.6-16.846,37.348-7.732,47.608C1199.146,71.108,1210.512,73.805,1215.838,61.582Z" style="fill:#e0744c">
     </path>
     <path d="M1267.644,71.066a1.319,1.319,0,0,1-.178-.011c-.953-.115-1.259-.683-2.4-2.8a92.59,92.59,0,0,0-23.719-28.947c-17.611-15.191-48.372-29.533-77.477-27.39a1.543,1.543,0,0,1-.226-3.078c29.968-2.207,61.626,12.525,79.684,28.1a95.453,95.453,0,0,1,24.454,29.85c.3.565.617,1.144.8,1.453a1.266,1.266,0,0,1,.142.114,1.542,1.542,0,0,1,.108,2.179A1.642,1.642,0,0,1,1267.644,71.066Z" style="fill:#0b0b0a">
     </path>
     <path d="M1235.705,64.361a1.542,1.542,0,0,1-1.5-1.216,1.514,1.514,0,0,1-.036-.352c-.16-.567-.752-2.179-1.326-3.742-2.968-8.078-9.142-24.889-7.477-32.752a1.543,1.543,0,0,1,1.495-1.224c13.742-.144,26.537,4.246,34.886,7.939a103.137,103.137,0,0,1,11,5.654c4.754,2.838,4.77,3.216,4.8,3.971a1.555,1.555,0,0,1-1.439,1.608,1.509,1.509,0,0,1-1.291-.545c-1.452-1.039-22.346-15.255-46.606-15.539-.642,7.574,5.031,23.018,7.531,29.824,1.7,4.615,1.76,4.794,1.339,5.563a1.584,1.584,0,0,1-1.04.775A1.48,1.48,0,0,1,1235.705,64.361Zm-.332-3.05a1.554,1.554,0,0,0-.263.084A1.551,1.551,0,0,1,1235.373,61.311Zm0,0h0Zm0,0h0Z" style="fill:#0b0b0a">
     </path>
     <path d="M1805.846,67.462c3.672.154,43.822,12.978,31.218-8.047,55.027,12.593,52.251-15.454,6.6-29.441,26.963-14.922-34.734-19.71-36.053-16.611,10.012-31-73.074-.1-57.6,34.245C1752.132,67.575,1815.361,95.031,1805.846,67.462Z" style="fill:#f9c860">
     </path>
     <path d="M1726.711,61.745a1.543,1.543,0,0,1-.925-2.778c16.679-12.474,46.9-21.106,73.732-21.106h.764a146.777,146.777,0,0,1,43.461,5.906c.632.178,1.282.362,1.6.44a1.5,1.5,0,0,1,1.5.967,1.569,1.569,0,0,1-.286,1.623c-.7.775-1.205.632-3.651-.061a143.573,143.573,0,0,0-42.592-5.789c-.249,0-.5,0-.75,0-26.277,0-55.733,8.381-71.928,20.492A1.53,1.53,0,0,1,1726.711,61.745Z" style="fill:#0b0b0a">
     </path>
     <path d="M1819.981,60.644a1.554,1.554,0,0,1-1.236-.618c-1.423-.9-8.82-4.2-15.378-7.125-8.743-3.9-18.651-8.317-23.72-11.043a1.543,1.543,0,0,1-.338-2.473c12.673-12.153,38.7-18.2,40.329-17.542a1.565,1.565,0,0,1,.98,1.369,1.542,1.542,0,0,1-1.468,1.614,1.247,1.247,0,0,1-.221,0c-2.275.262-23.781,5.142-35.863,15.335,5.326,2.688,13.892,6.508,21.557,9.926,16.549,7.379,16.579,7.495,16.861,8.6a1.625,1.625,0,0,1-.279,1.354A1.536,1.536,0,0,1,1819.981,60.644Zm-1.225-2.482a1.546,1.546,0,0,0-.244.468A1.565,1.565,0,0,1,1818.756,58.162Z" style="fill:#0b0b0a">
     </path>
     <path d="M1603.244,61.582c3.907,3.313,27.126,32.445,33.091,11.176,2.9,3.9,21.186,24.954,29.519,22.166,12.861-1.979,8.811-31.3,5.108-33.41,32.306,14.206,6.338-27.179-.526-29.469,22.236,3.86,19.419-12.237-2.77-22.643-20.878-10.686-61.129-15.681-83.494,3.913-24.706,19.6-16.846,37.348-7.732,47.608C1586.552,71.108,1597.918,73.805,1603.244,61.582Z" style="fill:#e0744c">
     </path>
     <path d="M1655.05,71.066a1.329,1.329,0,0,1-.178-.011c-.953-.116-1.259-.684-2.4-2.8a92.583,92.583,0,0,0-23.719-28.945c-17.609-15.191-48.374-29.531-77.475-27.39a1.543,1.543,0,1,1-.227-3.078c29.987-2.2,61.626,12.525,79.684,28.1A95.492,95.492,0,0,1,1655.192,66.8c.3.565.617,1.145.8,1.453a1.577,1.577,0,0,1,.144.115,1.543,1.543,0,0,1,.107,2.18A1.643,1.643,0,0,1,1655.05,71.066Z" style="fill:#0b0b0a">
     </path>
     <path d="M1623.112,64.361a1.543,1.543,0,0,1-1.506-1.216,1.513,1.513,0,0,1-.035-.352c-.161-.567-.752-2.179-1.328-3.742-2.966-8.078-9.141-24.889-7.477-32.752a1.543,1.543,0,0,1,1.495-1.224c13.719-.152,26.537,4.246,34.886,7.939a103.16,103.16,0,0,1,11,5.653c4.755,2.838,4.77,3.217,4.8,3.972a1.556,1.556,0,0,1-1.44,1.608,1.509,1.509,0,0,1-1.291-.545c-1.454-1.041-22.344-15.255-46.605-15.539-.642,7.574,5.031,23.017,7.531,29.824,1.695,4.615,1.761,4.794,1.339,5.563a1.585,1.585,0,0,1-1.039.775A1.493,1.493,0,0,1,1623.112,64.361Zm-.332-3.05a1.537,1.537,0,0,0-.264.084A1.533,1.533,0,0,1,1622.78,61.311Zm0,0h0Zm0,0h0Z" style="fill:#0b0b0a">
     </path>
    </g>
   </g>
  </svg>
