<svg xmlns="http://www.w3.org/2000/svg" x="0px" y="0px" viewBox="0 0 92.84 68.1" style="vertical-align: middle; max-width: 100%; width: 100%;" width="100%"><g>
	<g>
		<path d="M43.04,11.08c0.02-2.31,1.38-8.3-0.47-10.16c-0.78-0.78-2.38-0.67-3.11-0.59    c-4.78-0.47-9.87,0.12-14.68,0.12c-5.62,0-11.22-0.25-16.84-0.31C5.04,0.1,1.08-0.81,0.2,2.58C-0.32,4.6,0.33,7.59,0.39,9.69    c0.22,8.74,0.3,17.49,0.39,26.23c0.02,1.62-0.62,4.69,0.29,5.92C2,43.07,2.75,42.36,3.9,42.35c5.27-0.01,10.56,0.21,15.83,0.28    c0.84,5.97,0.98,11.87-1.22,17.61c-0.6,1.55-3.33,4.69-3.36,6.35c-0.04,2.25,3.77,1.49,5.34,0.86l-0.05,0.01    c0.51-0.18,1.02-0.38,1.52-0.6l-0.07,0.01c4.98-2.01,9.38-6.44,12.48-10.7c2.73-3.75,5.71-7.52,7.4-11.46    c2.56-5.97,1.25-13.9,1.25-20.62C43.02,19.75,43.01,15.42,43.04,11.08z M29.92,52.48C29.93,52.46,29.98,52.4,29.92,52.48    L29.92,52.48z M36.43,37.62c-0.61,3.44-2.51,6.38-3.8,9.6c-2.02,5.02-7.06,11.96-7.76,12.22c-0.33,0.12-1.15,1.65-1.83,1.44    c0.46-2.21,2.39-6.28,2.91-8.4c0.99-4.01,0.9-6.47,0.26-10.02c-0.57-3.15-0.5-4.02-2.56-6.27c-1.78-1.94-4.81-2.56-7.34-2.74    c-2.43-0.18-5.24,0.51-7.64,0.1c-1.63-0.28-1.12,0-1.76-1.21c-0.58-1.1-0.25-3.77-0.31-5.02c-0.23-4.54-0.12-9.14,0.01-13.58    c0.15-4.97,0.08-8.37,5.72-8.4c5.51-0.03,11.04-0.16,16.52-0.37c2.37-0.09,6.17-0.4,7.53,2.27c0.68,1.33,0.08,5.94,0.15,7.49    c0.16,3.71,0.16,7.39,0.24,11.11C36.79,26.92,36.74,35.86,36.43,37.62z" fill="rgb(0,121,121)"></path>
		<path d="M36.77,25.84c-0.08-3.72-0.08-7.4-0.24-11.11c-0.07-1.55,0.52-6.16-0.15-7.49    c-1.35-2.67-5.16-2.36-7.53-2.27c-5.48,0.22-11.01,0.34-16.52,0.37c-5.63,0.03-5.57,3.43-5.72,8.4    c-0.13,4.44-0.24,9.04-0.01,13.58c0.06,1.25-0.27,3.91,0.31,5.02c0.64,1.21,0.13,0.93,1.76,1.21c2.4,0.41,5.21-0.28,7.64-0.1    c2.53,0.18,5.56,0.81,7.34,2.74c2.06,2.25,1.99,3.12,2.56,6.27c0.64,3.55,0.73,6-0.26,10.02c-0.52,2.12-2.45,6.19-2.91,8.4    c0.67,0.2,1.5-1.32,1.83-1.44c0.7-0.26,5.75-7.2,7.76-12.22c1.29-3.22,3.19-6.16,3.8-9.6C36.74,35.86,36.79,26.92,36.77,25.84z" fill="#ffffff"></path>
	</g>
	<g>
		<path d="M92.34,11.08c0.02-2.31,1.38-8.3-0.47-10.16c-0.78-0.78-2.38-0.67-3.11-0.59    c-4.78-0.47-9.87,0.12-14.68,0.12c-5.62,0-11.22-0.25-16.84-0.31c-2.9-0.03-6.86-0.94-7.73,2.44c-0.52,2.02,0.13,5.01,0.19,7.11    c0.22,8.74,0.3,17.49,0.39,26.23c0.02,1.62-0.62,4.69,0.29,5.92c0.92,1.24,1.68,0.52,2.83,0.52c5.27-0.01,10.56,0.21,15.83,0.28    c0.84,5.97,0.98,11.87-1.22,17.61c-0.6,1.55-3.33,4.69-3.36,6.35c-0.04,2.25,3.77,1.49,5.34,0.86l-0.05,0.01    c0.51-0.18,1.02-0.38,1.52-0.6l-0.07,0.01c4.98-2.01,9.38-6.44,12.48-10.7c2.73-3.75,5.71-7.52,7.4-11.46    c2.56-5.97,1.25-13.9,1.25-20.62C92.32,19.75,92.31,15.42,92.34,11.08z M79.22,52.48C79.24,52.46,79.28,52.4,79.22,52.48    L79.22,52.48z M85.73,37.62c-0.61,3.44-2.51,6.38-3.8,9.6c-2.02,5.02-7.06,11.96-7.76,12.22c-0.33,0.12-1.15,1.65-1.83,1.44    c0.46-2.21,2.39-6.28,2.91-8.4c0.99-4.01,0.9-6.47,0.26-10.02c-0.57-3.15-0.5-4.02-2.56-6.27c-1.78-1.94-4.81-2.56-7.34-2.74    c-2.43-0.18-5.24,0.51-7.64,0.1c-1.63-0.28-1.12,0-1.76-1.21c-0.58-1.1-0.25-3.77-0.31-5.02c-0.23-4.54-0.12-9.14,0.01-13.58    c0.15-4.97,0.08-8.37,5.72-8.4c5.51-0.03,11.04-0.16,16.52-0.37c2.37-0.09,6.17-0.4,7.53,2.27c0.68,1.33,0.08,5.94,0.15,7.49    c0.16,3.71,0.16,7.39,0.24,11.11C86.09,26.92,86.04,35.86,85.73,37.62z" fill="rgb(0,121,121)"></path>
		<path d="M86.07,25.84c-0.08-3.72-0.08-7.4-0.24-11.11c-0.07-1.55,0.52-6.16-0.15-7.49    c-1.35-2.67-5.16-2.36-7.53-2.27c-5.48,0.22-11.01,0.34-16.52,0.37c-5.63,0.03-5.57,3.43-5.72,8.4    c-0.13,4.44-0.24,9.04-0.01,13.58c0.06,1.25-0.27,3.91,0.31,5.02c0.64,1.21,0.13,0.93,1.76,1.21c2.4,0.41,5.21-0.28,7.64-0.1    c2.53,0.18,5.56,0.81,7.34,2.74c2.06,2.25,1.99,3.12,2.56,6.27c0.64,3.55,0.73,6-0.26,10.02c-0.52,2.12-2.45,6.19-2.91,8.4    c0.67,0.2,1.5-1.32,1.83-1.44c0.7-0.26,5.75-7.2,7.76-12.22c1.29-3.22,3.19-6.16,3.8-9.6C86.04,35.86,86.09,26.92,86.07,25.84z" fill="#ffffff"></path>
	</g>
</g></svg>