<svg xmlns="http://www.w3.org/2000/svg" x="0px" y="0px" viewBox="0 0 92.84 68.1" style="vertical-align: middle; max-width: 100%; width: 100%;" width="100%"><g>
	<g>
		<path d="M49.8,57.02c-0.02,2.31-1.38,8.3,0.47,10.16c0.78,0.78,2.38,0.67,3.11,0.59    c4.78,0.47,9.87-0.12,14.68-0.12c5.62,0,11.22,0.25,16.84,0.31c2.9,0.03,6.86,0.94,7.73-2.44c0.52-2.02-0.13-5.01-0.19-7.11    c-0.22-8.74-0.3-17.49-0.39-26.23c-0.02-1.62,0.62-4.69-0.29-5.92c-0.92-1.24-1.68-0.52-2.83-0.52    c-5.27,0.01-10.56-0.21-15.83-0.28c-0.84-5.97-0.98-11.87,1.22-17.61c0.6-1.55,3.33-4.69,3.36-6.35c0.04-2.25-3.77-1.49-5.34-0.86    l0.05-0.01c-0.51,0.18-1.02,0.38-1.52,0.6l0.07-0.01c-4.98,2.01-9.38,6.44-12.48,10.7c-2.73,3.75-5.71,7.52-7.4,11.46    c-2.56,5.97-1.25,13.9-1.25,20.62C49.82,48.35,49.83,52.68,49.8,57.02z M62.92,15.62C62.91,15.64,62.86,15.7,62.92,15.62    L62.92,15.62z M56.41,30.48c0.61-3.44,2.51-6.38,3.8-9.6c2.02-5.02,7.06-11.96,7.76-12.22c0.33-0.12,1.15-1.65,1.83-1.44    c-0.46,2.21-2.39,6.28-2.91,8.4c-0.99,4.01-0.9,6.47-0.26,10.02c0.57,3.15,0.5,4.02,2.56,6.27c1.78,1.94,4.81,2.56,7.34,2.74    c2.43,0.18,5.24-0.51,7.64-0.1c1.63,0.28,1.12,0,1.76,1.21c0.58,1.1,0.25,3.77,0.31,5.02c0.23,4.54,0.12,9.14-0.01,13.58    c-0.15,4.97-0.08,8.37-5.72,8.4c-5.51,0.03-11.04,0.16-16.52,0.37c-2.37,0.09-6.17,0.4-7.53-2.27c-0.68-1.33-0.08-5.94-0.15-7.49    c-0.16-3.71-0.16-7.39-0.24-11.11C56.05,41.18,56.1,32.24,56.41,30.48z" fill="rgba(8,136,137,0.13)"></path>
		<path d="M56.07,42.26c0.08,3.72,0.08,7.4,0.24,11.11c0.07,1.55-0.52,6.16,0.15,7.49    c1.35,2.67,5.16,2.36,7.53,2.27c5.48-0.22,11.01-0.34,16.52-0.37c5.63-0.03,5.57-3.43,5.72-8.4c0.13-4.44,0.24-9.04,0.01-13.58    c-0.06-1.25,0.27-3.91-0.31-5.02c-0.64-1.21-0.13-0.93-1.76-1.21c-2.4-0.41-5.21,0.28-7.64,0.1c-2.53-0.18-5.56-0.81-7.34-2.74    c-2.06-2.25-1.99-3.12-2.56-6.27c-0.64-3.55-0.73-6,0.26-10.02c0.52-2.12,2.45-6.19,2.91-8.4c-0.67-0.2-1.5,1.32-1.83,1.44    c-0.7,0.26-5.75,7.2-7.76,12.22c-1.29,3.22-3.19,6.16-3.8,9.6C56.1,32.24,56.05,41.18,56.07,42.26z" fill="#ffffff"></path>
	</g>
	<g>
		<path d="M0.5,57.02c-0.02,2.31-1.38,8.3,0.47,10.16c0.78,0.78,2.38,0.67,3.11,0.59    c4.78,0.47,9.87-0.12,14.68-0.12c5.62,0,11.22,0.25,16.84,0.31c2.9,0.03,6.86,0.94,7.73-2.44c0.52-2.02-0.13-5.01-0.19-7.11    c-0.22-8.74-0.3-17.49-0.39-26.23c-0.02-1.62,0.62-4.69-0.29-5.92c-0.92-1.24-1.68-0.52-2.83-0.52    c-5.27,0.01-10.56-0.21-15.83-0.28c-0.84-5.97-0.98-11.87,1.22-17.61c0.6-1.55,3.33-4.69,3.36-6.35c0.04-2.25-3.77-1.49-5.34-0.86    l0.05-0.01c-0.51,0.18-1.02,0.38-1.52,0.6l0.07-0.01c-4.98,2.01-9.38,6.44-12.48,10.7c-2.73,3.75-5.71,7.52-7.4,11.46    c-2.56,5.97-1.25,13.9-1.25,20.62C0.52,48.35,0.53,52.68,0.5,57.02z M13.62,15.62C13.6,15.64,13.56,15.7,13.62,15.62L13.62,15.62z     M7.11,30.48c0.61-3.44,2.51-6.38,3.8-9.6c2.02-5.02,7.06-11.96,7.76-12.22C19,8.55,19.83,7.02,20.5,7.23    c-0.46,2.21-2.39,6.28-2.91,8.4c-0.99,4.01-0.9,6.47-0.26,10.02c0.57,3.15,0.5,4.02,2.56,6.27c1.78,1.94,4.81,2.56,7.34,2.74    c2.43,0.18,5.24-0.51,7.64-0.1c1.63,0.28,1.12,0,1.76,1.21c0.58,1.1,0.25,3.77,0.31,5.02c0.23,4.54,0.12,9.14-0.01,13.58    c-0.15,4.97-0.08,8.37-5.72,8.4c-5.51,0.03-11.04,0.16-16.52,0.37c-2.37,0.09-6.17,0.4-7.53-2.27c-0.68-1.33-0.08-5.94-0.15-7.49    c-0.16-3.71-0.16-7.39-0.24-11.11C6.75,41.18,6.8,32.24,7.11,30.48z" fill="rgba(8,136,137,0.13)"></path>
		<path d="M6.77,42.26c0.08,3.72,0.08,7.4,0.24,11.11c0.07,1.55-0.52,6.16,0.15,7.49    c1.35,2.67,5.16,2.36,7.53,2.27c5.48-0.22,11.01-0.34,16.52-0.37c5.63-0.03,5.57-3.43,5.72-8.4c0.13-4.44,0.24-9.04,0.01-13.58    c-0.06-1.25,0.27-3.91-0.31-5.02c-0.64-1.21-0.13-0.93-1.76-1.21c-2.4-0.41-5.21,0.28-7.64,0.1c-2.53-0.18-5.56-0.81-7.34-2.74    c-2.06-2.25-1.99-3.12-2.56-6.27c-0.64-3.55-0.73-6,0.26-10.02c0.52-2.12,2.45-6.19,2.91-8.4c-0.67-0.2-1.5,1.32-1.83,1.44    c-0.7,0.26-5.75,7.2-7.76,12.22c-1.29,3.22-3.19,6.16-3.8,9.6C6.8,32.24,6.75,41.18,6.77,42.26z" fill="#ffffff"></path>
	</g>
</g></svg>