<svg xmlns="http://www.w3.org/2000/svg" x="0px" y="0px" viewBox="0 0 325.8 182.3" style="vertical-align: middle; max-width: 100%;" width="100%"><g>
	<path d="M162.9,182.3c-36.5,0-75.4-14.7-112.5-42.6C22.7,118.9,5.8,98.3,5.1,97.4L0,91.1l5.1-6.3   c0.7-0.9,17.6-21.5,45.2-42.2C87.5,14.7,126.4,0,162.9,0c36.5,0,75.4,14.7,112.5,42.5c27.7,20.8,44.5,41.4,45.2,42.2l5.1,6.3   l-5.1,6.3c-0.7,0.9-17.6,21.5-45.2,42.3C238.3,167.6,199.4,182.3,162.9,182.3z M26.2,91.1c6.8,7.4,19.6,20.2,36.6,32.9   c23.3,17.5,59.6,38.3,100.1,38.3c40.6,0,77.1-21,100.5-38.6c16.8-12.6,29.4-25.3,36.2-32.6c-6.8-7.4-19.6-20.2-36.6-32.9   C239.7,40.8,203.4,20,162.9,20S86.1,40.8,62.8,58.3C45.9,70.9,33.1,83.7,26.2,91.1z" fill="rgb(202,29,24)"></path>
</g><g>
	<circle cx="162.9" cy="67.9" r="57.9" fill="rgb(202,29,24)"></circle>
	<path d="M162.9,135.8c-37.4,0-67.9-30.5-67.9-67.9S125.4,0,162.9,0c37.4,0,67.9,30.5,67.9,67.9   S200.3,135.8,162.9,135.8z M162.9,20C136.5,20,115,41.5,115,67.9c0,26.4,21.5,47.9,47.9,47.9c26.4,0,47.9-21.5,47.9-47.9   C210.8,41.5,189.3,20,162.9,20z" fill="rgb(202,29,24)"></path>
</g><g>
	<path d="M235.8,79" fill="none" stroke="#FFFFFF" stroke-width="20" stroke-miterlimit="10"></path>
</g><g>
	<path d="M142.1,67.8h-20c0-22.1,18-40.1,40.1-40.1v20C151.2,47.7,142.1,56.7,142.1,67.8z" fill="#FFFFFF"></path>
</g><g>
	<path d="M169.8,104.5" fill="none" stroke="#FFFFFF" stroke-width="20" stroke-miterlimit="10"></path>
</g></svg>